<!-- Generated by IcoMoon.io -->
<svg version="1.1" xmlns="http://www.w3.org/2000/svg" width="32" height="32" viewBox="0 0 32 32">
<title>equipment</title>
<path d="M9.755 11.589h-9.892c-0.304 0-0.55 0.236-0.55 0.527v3.164c0 0.292 0.246 0.527 0.55 0.527h0.55v12.127c0 0.292 0.246 0.527 0.55 0.527h7.694c0.304 0 0.55-0.236 0.55-0.527v-12.127h0.55c0.304 0 0.55-0.236 0.55-0.527v-3.164c0-0.292-0.246-0.527-0.55-0.527zM3.71 21.607v-1.055h3.297v-1.055h-3.297v-1.055h4.396v6.854h-4.396v-2.636h1.099v-1.055h-1.099zM8.106 17.389h-4.946c-0.304 0-0.55 0.236-0.55 0.527v7.909c0 0.292 0.246 0.527 0.55 0.527h4.946v1.055h-6.595v-11.6h6.595v1.582zM9.205 14.753h-8.793v-2.109h8.793v2.109z"></path>
<path d="M17.036 11.688v-3.855c0-0.3-0.246-0.543-0.55-0.543h-0.55v-2.714h1.099v-1.086h-6.045v1.086h3.847v2.714h-0.55c-0.304 0-0.55 0.243-0.55 0.543v3.855c-1.252 0.252-2.198 1.348-2.198 2.659v13.571c0 0.3 0.246 0.543 0.55 0.543h6.595c0.304 0 0.55-0.243 0.55-0.543v-13.571c0-1.31-0.946-2.407-2.198-2.659zM14.838 8.376h1.099v3.257h-1.099v-3.257zM14.289 12.719h2.198c0.909 0 1.649 0.731 1.649 1.629v0.543h-5.496v-0.543c0-0.898 0.74-1.629 1.649-1.629zM18.135 25.204h-5.496v-1.086h2.198v-1.086h-2.198v-7.057h5.496v9.228zM12.64 27.376v-1.086h5.496v1.086h-5.496z"></path>
<path d="M31.084 10.914h-9.274c-0.285 0-0.515 0.238-0.515 0.532v16.484c0 0.294 0.23 0.532 0.515 0.532h9.274c0.285 0 0.515-0.238 0.515-0.532v-16.484c0-0.294-0.23-0.532-0.515-0.532zM30.569 27.398h-8.243v-15.42h8.243v15.42z"></path>
<path d="M7.557 21.712h-1.374v0.675h1.374v-0.675z"></path>
<path d="M17.174 23.062h-1.374v1.35h1.374v-1.35z"></path>
<path d="M15.456 21.712c1.326 0 2.404-1.059 2.404-2.362s-1.078-2.362-2.404-2.362c-1.326 0-2.404 1.059-2.404 2.362s1.078 2.362 2.404 2.362zM15.456 18.169c0.663 0 1.202 0.53 1.202 1.181s-0.539 1.181-1.202 1.181c-0.663 0-1.202-0.53-1.202-1.181s0.539-1.181 1.202-1.181z"></path>
<path d="M25.159 16.313h2.576c0.994 0 1.803-0.757 1.803-1.687s-0.809-1.687-1.803-1.687h-2.576c-0.994 0-1.803 0.757-1.803 1.687s0.809 1.687 1.803 1.687zM28.508 14.626c0 0.399-0.347 0.723-0.773 0.723h-0.773v-1.446h0.773c0.426 0 0.773 0.324 0.773 0.723zM25.159 13.903h0.773v1.446h-0.773c-0.426 0-0.773-0.324-0.773-0.723s0.347-0.723 0.773-0.723z"></path>
<path d="M25.159 21.712h2.576c0.994 0 1.803-0.908 1.803-2.025s-0.809-2.025-1.803-2.025h-2.576c-0.994 0-1.803 0.908-1.803 2.025s0.809 2.025 1.803 2.025zM28.508 19.688c0 0.478-0.347 0.868-0.773 0.868h-0.773v-1.735h0.773c0.426 0 0.773 0.389 0.773 0.868zM25.159 18.82h0.773v1.735h-0.773c-0.426 0-0.773-0.389-0.773-0.868s0.347-0.868 0.773-0.868z"></path>
<path d="M25.159 26.437h2.576c0.994 0 1.803-0.908 1.803-2.025s-0.809-2.025-1.803-2.025h-2.576c-0.994 0-1.803 0.908-1.803 2.025s0.809 2.025 1.803 2.025zM28.508 24.412c0 0.478-0.347 0.868-0.773 0.868h-0.773v-1.735h0.773c0.426 0 0.773 0.389 0.773 0.868zM25.159 23.544h0.773v1.735h-0.773c-0.426 0-0.773-0.389-0.773-0.868s0.347-0.868 0.773-0.868z"></path>
</svg>
